HIERARCHY
ROOT Hips
{
	OFFSET 0.000000 100.481300 0.000000
	CHANNELS 6 Xposition Yposition Zposition Xrotation Yrotation Zrotation
	JOINT Spine
	{
		OFFSET -0.279200 12.230698 -2.892100
		CHANNELS 3 Xrotation Yrotation Zrotation
		JOINT Spine1
		{
			OFFSET -0.325700 14.269203 -3.374200
			CHANNELS 3 Xrotation Yrotation Zrotation
			JOINT Spine2
			{
				OFFSET -0.372300 16.307602 -0.352600
				CHANNELS 3 Xrotation Yrotation Zrotation
				JOINT Neck
				{
					OFFSET -0.418800 17.814194 8.416900
					CHANNELS 3 Xrotation Yrotation Zrotation
					JOINT Head
					{
						OFFSET 0.000000 7.031097 3.806800
						CHANNELS 3 Xrotation Yrotation Zrotation
						JOINT HeadTop_End
						{
							OFFSET 0.000000 24.646606 12.978600
							CHANNELS 3 Xrotation Yrotation Zrotation
							End Site
							{
								OFFSET 0.000000 27.854965 0.000000
							}
						}
					}
				}
				JOINT LeftShoulder
				{
					OFFSET 16.952999 14.495407 -7.737500
					CHANNELS 3 Xrotation Yrotation Zrotation
					JOINT LeftArm
					{
						OFFSET 9.308998 -2.777710 0.208600
						CHANNELS 3 Xrotation Yrotation Zrotation
						JOINT LeftForeArm
						{
							OFFSET 29.972298 0.000000 0.000000
							CHANNELS 3 Xrotation Yrotation Zrotation
							JOINT LeftHand
							{
								OFFSET 26.026505 0.000000 0.000000
								CHANNELS 3 Xrotation Yrotation Zrotation
								JOINT LeftHandThumb1
								{
									OFFSET 12.240501 -7.147949 9.207150
									CHANNELS 3 Xrotation Yrotation Zrotation
									JOINT LeftHandThumb2
									{
										OFFSET 4.138618 -2.389435 2.389433
										CHANNELS 3 Xrotation Yrotation Zrotation
										JOINT LeftHandThumb3
										{
											OFFSET 2.726913 -1.574387 1.574386
											CHANNELS 3 Xrotation Yrotation Zrotation
											JOINT LeftHandThumb4
											{
												OFFSET 3.941010 -2.275345 2.275342
												CHANNELS 3 Xrotation Yrotation Zrotation
												End Site
												{
													OFFSET -0.005798 5.087799 0.009903
												}
											}
										}
									}
								}
								JOINT LeftHandIndex1
								{
									OFFSET 24.424698 -1.985611 5.953459
									CHANNELS 3 Xrotation Yrotation Zrotation
									JOINT LeftHandIndex2
									{
										OFFSET 6.426697 0.000000 0.000000
										CHANNELS 3 Xrotation Yrotation Zrotation
										JOINT LeftHandIndex3
										{
											OFFSET 5.337898 0.000000 0.000000
											CHANNELS 3 Xrotation Yrotation Zrotation
											JOINT LeftHandIndex4
											{
												OFFSET 4.409401 0.000000 0.000000
												CHANNELS 3 Xrotation Yrotation Zrotation
												End Site
												{
													OFFSET 0.000000 4.409363 0.014373
												}
											}
										}
									}
								}
								JOINT LeftHandMiddle1
								{
									OFFSET 23.810104 0.000000 0.000000
									CHANNELS 3 Xrotation Yrotation Zrotation
									JOINT LeftHandMiddle2
									{
										OFFSET 7.176498 0.000000 0.000000
										CHANNELS 3 Xrotation Yrotation Zrotation
										JOINT LeftHandMiddle3
										{
											OFFSET 6.774902 0.000000 0.000000
											CHANNELS 3 Xrotation Yrotation Zrotation
											JOINT LeftHandMiddle4
											{
												OFFSET 5.403328 0.000000 0.000000
												CHANNELS 3 Xrotation Yrotation Zrotation
												End Site
												{
													OFFSET -0.027702 5.403244 0.017414
												}
											}
										}
									}
								}
								JOINT LeftHandRing1
								{
									OFFSET 22.908401 -0.839279 -6.020567
									CHANNELS 3 Xrotation Yrotation Zrotation
									JOINT LeftHandRing2
									{
										OFFSET 6.337502 0.000000 0.000000
										CHANNELS 3 Xrotation Yrotation Zrotation
										JOINT LeftHandRing3
										{
											OFFSET 5.779297 0.000000 0.000000
											CHANNELS 3 Xrotation Yrotation Zrotation
											JOINT LeftHandRing4
											{
												OFFSET 4.965698 0.000000 0.000000
												CHANNELS 3 Xrotation Yrotation Zrotation
												End Site
												{
													OFFSET 0.000000 4.965668 0.016186
												}
											}
										}
									}
								}
								JOINT LeftHandPinky1
								{
									OFFSET 20.037003 -1.530319 -10.950146
									CHANNELS 3 Xrotation Yrotation Zrotation
									JOINT LeftHandPinky2
									{
										OFFSET 5.254700 0.000000 0.000000
										CHANNELS 3 Xrotation Yrotation Zrotation
										JOINT LeftHandPinky3
										{
											OFFSET 4.810204 0.000000 0.000000
											CHANNELS 3 Xrotation Yrotation Zrotation
											JOINT LeftHandPinky4
											{
												OFFSET 3.647202 0.000000 0.000000
												CHANNELS 3 Xrotation Yrotation Zrotation
												End Site
												{
													OFFSET 0.000000 3.647186 0.011889
												}
											}
										}
									}
								}
							}
						}
					}
				}
				JOINT RightShoulder
				{
					OFFSET -15.141001 14.495407 -7.737500
					CHANNELS 3 Xrotation Yrotation Zrotation
					JOINT RightArm
					{
						OFFSET -9.308998 -2.777710 0.208500
						CHANNELS 3 Xrotation Yrotation Zrotation
						JOINT RightForeArm
						{
							OFFSET -29.972300 0.000000 0.000000
							CHANNELS 3 Xrotation Yrotation Zrotation
							JOINT RightHand
							{
								OFFSET -26.026505 0.000000 0.000000
								CHANNELS 3 Xrotation Yrotation Zrotation
								JOINT RightHandThumb1
								{
									OFFSET -12.240601 -7.148026 9.207092
									CHANNELS 3 Xrotation Yrotation Zrotation
									JOINT RightHandThumb2
									{
										OFFSET -4.138618 -2.389435 2.389433
										CHANNELS 3 Xrotation Yrotation Zrotation
										JOINT RightHandThumb3
										{
											OFFSET -2.726974 -1.574417 1.574421
											CHANNELS 3 Xrotation Yrotation Zrotation
											JOINT RightHandThumb4
											{
												OFFSET -3.941010 -2.275345 2.275343
												CHANNELS 3 Xrotation Yrotation Zrotation
												End Site
												{
													OFFSET 0.005814 5.087799 0.009927
												}
											}
										}
									}
								}
								JOINT RightHandIndex1
								{
									OFFSET -24.424698 -1.985657 5.953444
									CHANNELS 3 Xrotation Yrotation Zrotation
									JOINT RightHandIndex2
									{
										OFFSET -6.426697 0.000000 0.000000
										CHANNELS 3 Xrotation Yrotation Zrotation
										JOINT RightHandIndex3
										{
											OFFSET -5.337898 0.000000 0.000000
											CHANNELS 3 Xrotation Yrotation Zrotation
											JOINT RightHandIndex4
											{
												OFFSET -4.409401 0.000000 0.000000
												CHANNELS 3 Xrotation Yrotation Zrotation
												End Site
												{
													OFFSET 0.000000 4.409363 0.014408
												}
											}
										}
									}
								}
								JOINT RightHandMiddle1
								{
									OFFSET -23.810097 0.000000 0.000000
									CHANNELS 3 Xrotation Yrotation Zrotation
									JOINT RightHandMiddle2
									{
										OFFSET -7.176498 0.000000 0.000000
										CHANNELS 3 Xrotation Yrotation Zrotation
										JOINT RightHandMiddle3
										{
											OFFSET -6.774902 0.000000 0.000000
											CHANNELS 3 Xrotation Yrotation Zrotation
											JOINT RightHandMiddle4
											{
												OFFSET -5.403328 0.000000 0.000000
												CHANNELS 3 Xrotation Yrotation Zrotation
												End Site
												{
													OFFSET 0.027702 5.403244 0.017457
												}
											}
										}
									}
								}
								JOINT RightHandRing1
								{
									OFFSET -22.908302 -0.839325 -6.020576
									CHANNELS 3 Xrotation Yrotation Zrotation
									JOINT RightHandRing2
									{
										OFFSET -6.337502 0.000000 0.000000
										CHANNELS 3 Xrotation Yrotation Zrotation
										JOINT RightHandRing3
										{
											OFFSET -5.779297 0.000000 0.000000
											CHANNELS 3 Xrotation Yrotation Zrotation
											JOINT RightHandRing4
											{
												OFFSET -4.965698 0.000000 0.000000
												CHANNELS 3 Xrotation Yrotation Zrotation
												End Site
												{
													OFFSET 0.000000 4.965668 0.016226
												}
											}
										}
									}
								}
								JOINT RightHandPinky1
								{
									OFFSET -20.037003 -1.530334 -10.950259
									CHANNELS 3 Xrotation Yrotation Zrotation
									JOINT RightHandPinky2
									{
										OFFSET -5.254700 0.000000 0.000000
										CHANNELS 3 Xrotation Yrotation Zrotation
										JOINT RightHandPinky3
										{
											OFFSET -4.810204 0.000000 0.000000
											CHANNELS 3 Xrotation Yrotation Zrotation
											JOINT RightHandPinky4
											{
												OFFSET -3.647202 0.000000 0.000000
												CHANNELS 3 Xrotation Yrotation Zrotation
												End Site
												{
													OFFSET 0.000000 3.647186 0.011917
												}
											}
										}
									}
								}
							}
						}
					}
				}
			}
		}
	}
	JOINT LeftUpLeg
	{
		OFFSET 15.427100 -6.655098 0.678600
		CHANNELS 3 Xrotation Yrotation Zrotation
		JOINT LeftLeg
		{
			OFFSET 4.081073 -39.591068 13.024000
			CHANNELS 3 Xrotation Yrotation Zrotation
			JOINT LeftFoot
			{
				OFFSET -4.081074 -37.707932 -15.979700
				CHANNELS 3 Xrotation Yrotation Zrotation
				JOINT LeftToeBase
				{
					OFFSET 5.346399 -15.068900 20.645000
					CHANNELS 3 Xrotation Yrotation Zrotation
					JOINT LeftToe_End
					{
						OFFSET 2.754700 0.931300 11.300900
						CHANNELS 3 Xrotation Yrotation Zrotation
						End Site
						{
							OFFSET 0.000000 11.669021 0.000000
						}
					}
				}
			}
		}
	}
	JOINT RightUpLeg
	{
		OFFSET -15.569500 -6.655098 0.678600
		CHANNELS 3 Xrotation Yrotation Zrotation
		JOINT RightLeg
		{
			OFFSET -4.081825 -39.591045 13.023800
			CHANNELS 3 Xrotation Yrotation Zrotation
			JOINT RightFoot
			{
				OFFSET 4.081824 -37.707954 -15.979600
				CHANNELS 3 Xrotation Yrotation Zrotation
				JOINT RightToeBase
				{
					OFFSET -5.346400 -15.068900 20.645000
					CHANNELS 3 Xrotation Yrotation Zrotation
					JOINT RightToe_End
					{
						OFFSET -2.754700 0.931300 11.300900
						CHANNELS 3 Xrotation Yrotation Zrotation
						End Site
						{
							OFFSET 0.000000 11.669021 0.000000
						}
					}
				}
			}
		}
	}
}
MOTION
Frames: 4
Frame Time: 0.033333
0.564403 49.295105 16.302332 0.145799 0.084627 0.843673 10.430416 0.113395 -1.467309 -0.199080 0.213325 -0.355474 -0.199400 0.248526 -0.300891 -1.001768 -1.284342 0.469464 -8.883499 -4.327061 -5.321560 -0.000000 0.000000 -0.000001 0.823530 -15.262005 -7.868722 4.746625 -21.216372 -54.862060 -0.000003 -62.197943 0.000003 31.063055 4.315348 41.770404 6.611636 1.796997 20.798437 2.716381 20.172571 -24.389159 -5.537245 29.849542 5.070894 -0.000001 0.000001 0.000002 -0.235306 2.798400 -26.913102 0.396826 2.121274 -21.189303 0.083132 0.984478 -9.653443 -0.000000 0.000002 -0.000001 1.299550 7.335643 -16.510994 0.329947 1.940116 -19.302400 0.233129 1.637790 -16.201311 0.000002 -0.000003 0.000003 1.796865 9.805886 -14.185127 0.205922 1.541128 -15.220523 0.265294 1.744618 -17.291093 0.000001 0.000000 -0.000003 2.040603 10.867216 -13.919491 0.168533 1.396465 -13.761701 0.107170 1.116599 -10.964447 -0.000000 0.000000 -0.000003 3.171105 -4.378746 8.782863 -3.950451 37.253406 63.733636 -0.000013 55.138229 0.000007 43.537426 4.741006 -36.278181 -9.383504 -1.613354 -17.604719 3.557277 -24.337940 34.656769 -6.608474 -37.497329 -11.176201 -0.000003 -0.000001 0.000006 2.957828 1.012837 13.529993 0.472472 -2.045700 26.006739 0.059756 -0.744410 9.177794 0.000001 0.000001 -0.000003 0.105539 -3.665065 2.525358 0.585002 -2.261701 29.000587 0.020467 -0.436561 5.367143 0.000000 0.000000 -0.000001 0.456436 -7.644396 4.305908 0.107458 -0.995736 12.319032 0.072399 -0.818814 10.104479 0.000001 0.000000 -0.000006 -11.166675 -10.228511 7.169328 0.029128 -0.520606 6.404052 0.028655 -0.516343 6.351670 0.000000 0.000000 -0.000000 -86.311851 -11.433868 18.501828 79.645292 -0.700075 -3.147200 9.215028 -6.279013 -9.760030 -0.103125 0.000001 0.000000 0.000000 -0.000000 0.000000 -88.057633 12.723178 -14.133402 80.264551 0.661043 1.246206 10.522536 -0.516097 10.737097 -0.193568 0.000004 0.000000 0.000000 0.000001 -0.000000 
0.566200 49.349030 16.002426 0.271447 0.115326 0.806764 10.676749 0.138049 -1.532336 0.989249 0.339135 -0.405736 -0.868939 0.367026 -0.383366 -5.555514 -1.313552 0.414474 -9.607581 -4.497198 -4.991795 -0.000000 -0.000001 -0.000000 1.048453 -15.970162 -4.825046 4.593529 -22.814097 -56.590361 -0.000010 -62.014156 -0.000020 29.541200 4.625153 43.890789 6.611636 1.797008 20.798438 2.368728 20.409379 -24.490060 -5.745769 29.384553 5.347664 -0.000001 0.000000 0.000000 -0.002015 2.668325 -26.948238 0.396113 2.119469 -21.170187 0.083141 0.984477 -9.653438 0.000000 -0.000003 -0.000001 1.299555 7.335657 -16.510980 0.329959 1.940108 -19.302396 0.233120 1.637767 -16.201323 0.000000 -0.000000 0.000000 1.796863 9.805896 -14.185120 0.205915 1.541103 -15.220528 0.265287 1.744625 -17.291093 0.000001 0.000000 0.000000 2.040608 10.867228 -13.919476 0.168524 1.396469 -13.761708 0.107177 1.116604 -10.964445 0.000001 -0.000000 -0.000002 1.970817 -2.454168 8.899728 -0.556740 35.330564 61.717931 0.000003 57.999269 -0.000013 42.797723 3.482264 -36.838970 -8.485432 -2.158412 -17.487661 3.518782 -24.358755 34.612335 -6.325549 -37.291928 -10.765335 -0.000000 -0.000005 0.000002 3.071898 0.944854 13.629326 0.471581 -2.043900 25.981920 0.059436 -0.742374 9.152713 -0.000002 -0.000001 -0.000002 0.082322 -3.780487 1.303415 0.590774 -2.272071 29.146528 0.021680 -0.449267 5.523692 -0.000001 -0.000001 0.000003 0.410484 -8.170647 3.385964 0.110330 -1.008761 12.483019 0.074848 -0.832483 10.274922 -0.000001 -0.000000 -0.000001 -11.313516 -9.987763 5.999379 0.029122 -0.520600 6.404048 0.028655 -0.516351 6.351666 -0.000001 0.000000 -0.000002 -86.552499 -11.360637 18.390993 79.262515 -0.584802 -3.115960 9.682629 -6.314799 -9.642594 -0.103125 -0.000000 0.000000 0.000000 -0.000000 0.000000 -88.212583 12.654433 -14.063179 79.870607 0.520369 1.226464 10.942979 -0.471165 10.704189 -0.193577 0.000006 -0.000001 0.000000 0.000001 0.000000 
0.520976 49.459091 15.580219 0.910642 0.170766 0.738635 10.932166 0.217831 -1.542958 1.278384 0.546734 -0.418136 -1.888219 0.578329 -0.383182 -10.817278 -1.285672 0.354683 -9.867677 -4.352994 -4.830561 0.000000 0.000000 0.000000 1.362883 -16.425572 -1.553507 4.876890 -25.571304 -58.384450 -0.000028 -61.421357 -0.000031 27.364345 4.912530 46.383675 6.611637 1.797005 20.798425 2.087192 20.603284 -24.618754 -6.036935 28.903131 5.638335 0.000000 0.000000 0.000002 0.234490 2.511234 -26.981040 0.395196 2.117058 -21.145087 0.083139 0.984492 -9.653434 0.000001 0.000000 -0.000005 1.299541 7.335661 -16.510992 0.329956 1.940100 -19.302401 0.233120 1.637766 -16.201321 0.000002 -0.000000 -0.000002 1.796864 9.805894 -14.185117 0.205913 1.541108 -15.220532 0.265298 1.744625 -17.291088 -0.000001 0.000000 0.000001 2.040598 10.867217 -13.919480 0.168530 1.396466 -13.761714 0.107184 1.116610 -10.964449 -0.000000 0.000000 -0.000002 0.650537 -0.808422 8.788588 3.553107 33.183672 60.186848 0.000002 61.165498 -0.000018 42.326498 2.055380 -37.266014 -8.359953 -2.232863 -17.468880 3.515069 -24.359395 34.604692 -6.290366 -37.261670 -10.705872 0.000001 -0.000002 0.000006 3.086754 0.935307 13.643299 0.471429 -2.043591 25.977817 0.059370 -0.742046 9.148615 0.000001 0.000001 0.000003 0.078425 -3.796465 1.128450 0.591391 -2.273184 29.162353 0.021838 -0.451035 5.545379 0.000002 0.000000 -0.000003 0.402134 -8.244362 3.251919 0.110688 -1.010391 12.503241 0.075193 -0.834377 10.298464 0.000001 0.000000 -0.000001 -11.333790 -9.952813 5.837153 0.029128 -0.520611 6.404048 0.028655 -0.516350 6.351665 0.000001 -0.000000 0.000000 -87.297058 -11.339988 18.222311 78.609706 -0.384660 -3.066697 10.412838 -6.381265 -9.561157 -0.103125 -0.000001 0.000000 0.000000 0.000000 0.000000 -88.848132 12.585654 -13.891698 79.250289 0.225982 1.208662 11.569656 -0.405468 10.672034 -0.193576 -0.000000 -0.000003 -0.000000 -0.000000 0.000000 
0.486719 49.660202 15.114723 2.355324 0.244109 0.698539 11.182433 0.317479 -1.533866 1.364147 0.782621 -0.431169 -2.978009 0.822115 -0.338480 -16.054139 -1.241430 0.310222 -9.981294 -4.118775 -4.716740 -0.000000 -0.000000 0.000000 1.754821 -16.187364 1.605395 5.554480 -29.744511 -59.220206 -0.000022 -61.482344 -0.000033 24.586921 5.559707 49.365298 6.611630 1.797017 20.798430 1.875643 20.755063 -24.773781 -6.402738 28.407819 5.933219 0.000000 -0.000001 -0.000001 0.474761 2.333747 -27.018364 0.394307 2.114792 -21.121141 0.083139 0.984477 -9.653432 -0.000002 -0.000001 0.000003 1.299544 7.335656 -16.510989 0.329958 1.940109 -19.302398 0.233119 1.637766 -16.201327 -0.000002 0.000001 -0.000002 1.796860 9.805902 -14.185114 0.205922 1.541124 -15.220522 0.265303 1.744612 -17.291083 0.000002 -0.000002 0.000002 2.040600 10.867218 -13.919477 0.168526 1.396480 -13.761707 0.107175 1.116606 -10.964453 -0.000001 -0.000001 -0.000000 -0.659425 0.552943 8.321382 7.775526 31.076555 59.237138 -0.000042 64.998177 0.000053 42.305830 0.360028 -37.954268 -8.442667 -2.180537 -17.479291 3.513893 -24.359026 34.600891 -6.305380 -37.278059 -10.743197 0.000001 -0.000001 0.000003 3.074196 0.940375 13.643812 0.471422 -2.043595 25.977757 0.059348 -0.741932 9.147011 -0.000002 -0.000002 0.000002 0.080726 -3.785442 1.232192 0.590471 -2.271533 29.138936 0.021717 -0.449814 5.530367 0.000001 0.000000 -0.000002 0.405738 -8.198105 3.318886 0.110394 -1.009039 12.486566 0.074952 -0.833079 10.282118 -0.000002 -0.000000 0.000001 -11.320400 -9.974060 5.946347 0.029132 -0.520592 6.404055 0.028649 -0.516348 6.351670 0.000005 0.000000 -0.000000 -88.715128 -11.366225 17.933891 77.723919 -0.032227 -3.018539 11.266225 -6.450293 -9.548931 -0.103125 -0.000000 0.000000 0.000000 -0.000001 0.000000 -90.184855 12.614452 -13.661419 78.393995 -0.164541 1.181060 12.350756 -0.336814 10.712187 -0.193584 0.000002 0.000003 -0.000000 -0.000001 0.000000 
